<svg width="64" height="64" viewBox="0 0 64 64" fill="none" xmlns="http://www.w3.org/2000/svg">
  <path d="M18 26C18 17.7157 24.7157 11 33 11H47C50.3137 11 53 13.6863 53 17V31C53 39.2843 46.2843 46 38 46H24C20.6863 46 18 43.3137 18 40V26Z" fill="#1677FF"/>
  <path d="M11 33C11 24.7157 17.7157 18 26 18H40C43.3137 18 46 20.6863 46 24V38C46 46.2843 39.2843 53 31 53H17C13.6863 53 11 50.3137 11 47V33Z" fill="#1D2329" fill-opacity="0.18"/>
  <path d="M20 36C25.2 28.8 32.4 25.5 41 26.2C45.3 26.6 48.9 28.3 52 31.2V34.8C52 41.5 46.5 47 39.8 47H24C20.7 47 18 44.3 18 41V39.4C18.5 38.3 19.2 37.2 20 36Z" fill="#EAF2FF"/>
  <path d="M17 48C23.6 39.2 31.5 35.4 40.7 36.5C44.4 36.9 47.6 38.2 50.4 40.2C47.9 44.3 43.4 47 38.2 47H24C21.5 47 19.2 47.4 17 48Z" fill="#1677FF"/>
</svg>
