<svg viewBox="0 0 1024 1024" xmlns="http://www.w3.org/2000/svg">
  <path d="M512 96c35.3 0 64 28.7 64 64v42.3c104.5 21.5 186.3 108.9 199.5 216.2 48.7 15.4 84.5 60.7 84.5 114.5v58c0 63.5-49.5 115.5-112 119.7C710.5 801.8 620.6 864 516 864h-24c-137 0-248-111-248-248V446c0-119.9 86.5-220.4 200-243.7V160c0-35.3 28.7-64 64-64h4Zm-16 170c-101.6 0-184 82.4-184 184v160c0 101.6 82.4 184 184 184h24c82.4 0 154-54.2 176.9-130.5 4.1-13.6 16.6-23 30.8-23H740c31.5 0 57-25.5 57-57v-42c0-31.5-25.5-57-57-57h-4.5c-16.8 0-30.7-13-31.9-29.8C696.5 349.4 617.6 266 528 266h-32Zm-104 174c34.2 0 62 27.8 62 62s-27.8 62-62 62-62-27.8-62-62 27.8-62 62-62Zm216 0c34.2 0 62 27.8 62 62s-27.8 62-62 62-62-27.8-62-62 27.8-62 62-62ZM384 644h172c17.7 0 32 14.3 32 32s-14.3 32-32 32H384c-17.7 0-32-14.3-32-32s14.3-32 32-32Zm400 88 19.5 11.3c10.3 5.9 15.4 17.9 12.5 29.4-2.1 8.5-5 16.6-8.5 24.4-4.9 10.8-16.4 17-28 15.1l-22.3-3.7c-6.1 7.2-12.9 13.9-20.2 19.8l3.4 22.5c1.8 11.7-4.6 23.1-15.5 27.8-7.9 3.4-16.1 6.1-24.6 8.1-11.5 2.7-23.4-2.6-29.1-13L660.3 854c-9.4-.8-18.6-2.7-27.3-5.5l-17.8 14c-9.3 7.3-22.4 7.6-32.1.8-7-4.9-13.6-10.6-19.6-16.8-8.2-8.5-9.6-21.5-3.5-31.6l11.8-19.3c-4.2-8.4-7.4-17.3-9.6-26.5l-21-8.4c-11-4.4-17.7-15.6-16.4-27.4.9-8.6 2.7-17.1 5.3-25.3 3.6-11.3 14.3-18.8 26.1-18.4l22.6.8c5.3-7.8 11.4-15 18.3-21.4l-5.8-21.9c-3-11.4 2-23.5 12.2-29.5 7.4-4.3 15.3-7.9 23.5-10.7 11.2-3.8 23.5.3 30.1 10.1l12.6 18.8c4.7-.4 9.4-.6 14.2-.6s9.5.2 14.2.6l12.6-18.8c6.6-9.8 18.9-13.9 30.1-10.1 8.2 2.8 16.1 6.4 23.5 10.7 10.2 6 15.2 18.1 12.2 29.5l-5.8 21.9c6.9 6.4 13 13.6 18.3 21.4l22.6-.8c11.8-.4 22.5 7.1 26.1 18.4 2.6 8.2 4.4 16.7 5.3 25.3 1.3 11.8-5.4 23-16.4 27.4l-21 8.4c-2.1 9.2-5.4 18.1-9.6 26.5ZM672 704c-35.3 0-64 28.7-64 64s28.7 64 64 64 64-28.7 64-64-28.7-64-64-64Z"/>
</svg>
