<svg viewBox="0 0 1024 1024" xmlns="http://www.w3.org/2000/svg">
  <path d="M512 96c35.3 0 64 28.7 64 64v42.3c113.5 23.3 200 123.8 200 243.7v168c0 137-111 248-248 248h-32c-137 0-248-111-248-248V446c0-119.9 86.5-220.4 200-243.7V160c0-35.3 28.7-64 64-64Zm-16 170c-101.6 0-184 82.4-184 184v160c0 101.6 82.4 184 184 184h32c101.6 0 184-82.4 184-184V450c0-101.6-82.4-184-184-184h-32Zm-104 174c34.2 0 62 27.8 62 62s-27.8 62-62 62-62-27.8-62-62 27.8-62 62-62Zm240 0c34.2 0 62 27.8 62 62s-27.8 62-62 62-62-27.8-62-62 27.8-62 62-62ZM384 644h256c17.7 0 32 14.3 32 32s-14.3 32-32 32H384c-17.7 0-32-14.3-32-32s14.3-32 32-32ZM160 480c17.7 0 32 14.3 32 32v96c0 17.7-14.3 32-32 32s-32-14.3-32-32v-96c0-17.7 14.3-32 32-32Zm704 0c17.7 0 32 14.3 32 32v96c0 17.7-14.3 32-32 32s-32-14.3-32-32v-96c0-17.7 14.3-32 32-32Z"/>
</svg>
