<svg viewBox="0 0 24 24" xmlns="http://www.w3.org/2000/svg">
  <path d="M4 5.5h10.8a1.7 1.7 0 0 1 1.7 1.7v1.3h1.8c.4 0 .8.2 1.1.5l1.7 2.1c.3.3.4.7.4 1.1v4.3h-2.1a2.4 2.4 0 0 1-4.7 0H9.3a2.4 2.4 0 0 1-4.7 0H2.5V7A1.5 1.5 0 0 1 4 5.5Z" fill="none" stroke="currentColor" stroke-width="1.7" stroke-linejoin="round"/>
  <path d="M16.5 9.2v4.1h4.8" fill="none" stroke="currentColor" stroke-width="1.7" stroke-linecap="round" stroke-linejoin="round"/>
  <circle cx="7" cy="16.5" r="1.2" fill="currentColor"/>
  <circle cx="17" cy="16.5" r="1.2" fill="currentColor"/>
  <path d="M5.5 8.5h5.8M5.5 11.2h7.1" fill="none" stroke="currentColor" stroke-width="1.5" stroke-linecap="round"/>
</svg>
