<svg width="760" height="330" viewBox="0 0 760 330" fill="none" xmlns="http://www.w3.org/2000/svg">
  <rect width="760" height="330" rx="18" fill="#F5F7FA"/>
  <rect x="34" y="30" width="692" height="46" rx="8" fill="#FFFFFF" stroke="#EEF2F7"/>
  <g transform="translate(52 39) scale(0.4375)">
    <path d="M18 26C18 17.7157 24.7157 11 33 11H47C50.3137 11 53 13.6863 53 17V31C53 39.2843 46.2843 46 38 46H24C20.6863 46 18 43.3137 18 40V26Z" fill="#1677FF"/>
    <path d="M11 33C11 24.7157 17.7157 18 26 18H40C43.3137 18 46 20.6863 46 24V38C46 46.2843 39.2843 53 31 53H17C13.6863 53 11 50.3137 11 47V33Z" fill="#1D2329" fill-opacity="0.18"/>
    <path d="M20 36C25.2 28.8 32.4 25.5 41 26.2C45.3 26.6 48.9 28.3 52 31.2V34.8C52 41.5 46.5 47 39.8 47H24C20.7 47 18 44.3 18 41V39.4C18.5 38.3 19.2 37.2 20 36Z" fill="#EAF2FF"/>
    <path d="M17 48C23.6 39.2 31.5 35.4 40.7 36.5C44.4 36.9 47.6 38.2 50.4 40.2C47.9 44.3 43.4 47 38.2 47H24C21.5 47 19.2 47.4 17 48Z" fill="#1677FF"/>
  </g>
  <text x="88" y="59" fill="#1D2329" font-family="Inter, Arial, sans-serif" font-size="15" font-weight="600">skyspf</text>
  <text x="590" y="59" fill="#8C96A5" font-family="Inter, Arial, sans-serif" font-size="13">brand mark, no story</text>

  <g transform="translate(54 116)">
    <rect width="142" height="154" rx="12" fill="#FFFFFF" stroke="#E6EBF1"/>
    <g transform="translate(39 20)">
      <path d="M18 26C18 17.7157 24.7157 11 33 11H47C50.3137 11 53 13.6863 53 17V31C53 39.2843 46.2843 46 38 46H24C20.6863 46 18 43.3137 18 40V26Z" fill="#1677FF"/>
      <path d="M11 33C11 24.7157 17.7157 18 26 18H40C43.3137 18 46 20.6863 46 24V38C46 46.2843 39.2843 53 31 53H17C13.6863 53 11 50.3137 11 47V33Z" fill="#1D2329" fill-opacity="0.18"/>
      <path d="M20 36C25.2 28.8 32.4 25.5 41 26.2C45.3 26.6 48.9 28.3 52 31.2V34.8C52 41.5 46.5 47 39.8 47H24C20.7 47 18 44.3 18 41V39.4C18.5 38.3 19.2 37.2 20 36Z" fill="#EAF2FF"/>
      <path d="M17 48C23.6 39.2 31.5 35.4 40.7 36.5C44.4 36.9 47.6 38.2 50.4 40.2C47.9 44.3 43.4 47 38.2 47H24C21.5 47 19.2 47.4 17 48Z" fill="#1677FF"/>
    </g>
    <g transform="translate(55 94) scale(0.5)">
      <path d="M18 26C18 17.7157 24.7157 11 33 11H47C50.3137 11 53 13.6863 53 17V31C53 39.2843 46.2843 46 38 46H24C20.6863 46 18 43.3137 18 40V26Z" fill="#1677FF"/>
      <path d="M11 33C11 24.7157 17.7157 18 26 18H40C43.3137 18 46 20.6863 46 24V38C46 46.2843 39.2843 53 31 53H17C13.6863 53 11 50.3137 11 47V33Z" fill="#1D2329" fill-opacity="0.18"/>
      <path d="M20 36C25.2 28.8 32.4 25.5 41 26.2C45.3 26.6 48.9 28.3 52 31.2V34.8C52 41.5 46.5 47 39.8 47H24C20.7 47 18 44.3 18 41V39.4C18.5 38.3 19.2 37.2 20 36Z" fill="#EAF2FF"/>
      <path d="M17 48C23.6 39.2 31.5 35.4 40.7 36.5C44.4 36.9 47.6 38.2 50.4 40.2C47.9 44.3 43.4 47 38.2 47H24C21.5 47 19.2 47.4 17 48Z" fill="#1677FF"/>
    </g>
    <text x="62" y="138" fill="#8C96A5" font-family="Inter, Arial, sans-serif" font-size="11">D1</text>
  </g>

  <g transform="translate(227 116)">
    <rect width="142" height="154" rx="12" fill="#FFFFFF" stroke="#E6EBF1"/>
    <g transform="translate(39 20)">
      <path d="M18 14H35C41.6274 14 47 19.3726 47 26V43C47 46.866 43.866 50 40 50H23C16.3726 50 11 44.6274 11 38V21C11 17.134 14.134 14 18 14Z" fill="#1677FF"/>
      <path d="M29 14H46C49.866 14 53 17.134 53 21V38C53 44.6274 47.6274 50 41 50H24C20.134 50 17 46.866 17 43V26C17 19.3726 22.3726 14 29 14Z" fill="#80B3FF"/>
      <path d="M18 34C24.8 27.5 32.4 25 40.8 26.5C45.4 27.3 49.5 29.5 53 33V38C53 44.6274 47.6274 50 41 50H24C20.134 50 17 46.866 17 43V35.1C17.3 34.7 17.6 34.4 18 34Z" fill="#1D2329" fill-opacity="0.22"/>
      <path d="M18 42C24.2 35.7 31.1 33 38.8 33.9C43.5 34.5 47.7 36.8 51.2 40.8C49.7 46.1 44.8 50 39 50H24C20.7 50 18 47.3 18 44V42Z" fill="#EAF2FF"/>
    </g>
    <g transform="translate(55 94) scale(0.5)">
      <path d="M18 14H35C41.6274 14 47 19.3726 47 26V43C47 46.866 43.866 50 40 50H23C16.3726 50 11 44.6274 11 38V21C11 17.134 14.134 14 18 14Z" fill="#1677FF"/>
      <path d="M29 14H46C49.866 14 53 17.134 53 21V38C53 44.6274 47.6274 50 41 50H24C20.134 50 17 46.866 17 43V26C17 19.3726 22.3726 14 29 14Z" fill="#80B3FF"/>
      <path d="M18 34C24.8 27.5 32.4 25 40.8 26.5C45.4 27.3 49.5 29.5 53 33V38C53 44.6274 47.6274 50 41 50H24C20.134 50 17 46.866 17 43V35.1C17.3 34.7 17.6 34.4 18 34Z" fill="#1D2329" fill-opacity="0.22"/>
      <path d="M18 42C24.2 35.7 31.1 33 38.8 33.9C43.5 34.5 47.7 36.8 51.2 40.8C49.7 46.1 44.8 50 39 50H24C20.7 50 18 47.3 18 44V42Z" fill="#EAF2FF"/>
    </g>
    <text x="62" y="138" fill="#8C96A5" font-family="Inter, Arial, sans-serif" font-size="11">D2</text>
  </g>

  <g transform="translate(400 116)">
    <rect width="142" height="154" rx="12" fill="#FFFFFF" stroke="#E6EBF1"/>
    <g transform="translate(39 20)">
      <path d="M32 9C40.2843 9 47 15.7157 47 24V40C47 48.2843 40.2843 55 32 55C23.7157 55 17 48.2843 17 40V24C17 15.7157 23.7157 9 32 9Z" fill="#1677FF"/>
      <path d="M32 9C40.2843 9 47 15.7157 47 24V31C42.5 28.2 37.5 26.9 32 27C26.5 27.1 21.5 28.6 17 31.5V24C17 15.7157 23.7157 9 32 9Z" fill="#EAF2FF"/>
      <path d="M18 41C22.4 35.3 27.7 32.5 34 32.5C39.4 32.5 43.8 34.7 47 39.2V40C47 48.2843 40.2843 55 32 55C25.7 55 20.3 51.1 18 45.6V41Z" fill="#1D2329" fill-opacity="0.2"/>
      <path d="M20 44C24 39.4 28.7 37.3 34 37.7C38.6 38 42.5 40.2 45.8 44.2C44 50.4 38.5 55 32 55C26.9 55 22.4 52.2 20 48V44Z" fill="#1677FF"/>
    </g>
    <g transform="translate(55 94) scale(0.5)">
      <path d="M32 9C40.2843 9 47 15.7157 47 24V40C47 48.2843 40.2843 55 32 55C23.7157 55 17 48.2843 17 40V24C17 15.7157 23.7157 9 32 9Z" fill="#1677FF"/>
      <path d="M32 9C40.2843 9 47 15.7157 47 24V31C42.5 28.2 37.5 26.9 32 27C26.5 27.1 21.5 28.6 17 31.5V24C17 15.7157 23.7157 9 32 9Z" fill="#EAF2FF"/>
      <path d="M18 41C22.4 35.3 27.7 32.5 34 32.5C39.4 32.5 43.8 34.7 47 39.2V40C47 48.2843 40.2843 55 32 55C25.7 55 20.3 51.1 18 45.6V41Z" fill="#1D2329" fill-opacity="0.2"/>
      <path d="M20 44C24 39.4 28.7 37.3 34 37.7C38.6 38 42.5 40.2 45.8 44.2C44 50.4 38.5 55 32 55C26.9 55 22.4 52.2 20 48V44Z" fill="#1677FF"/>
    </g>
    <text x="62" y="138" fill="#8C96A5" font-family="Inter, Arial, sans-serif" font-size="11">D3</text>
  </g>

  <g transform="translate(573 116)">
    <rect width="142" height="154" rx="12" fill="#FFFFFF" stroke="#E6EBF1"/>
    <g transform="translate(39 20)">
      <path d="M15 19C15 15.6863 17.6863 13 21 13H43C46.3137 13 49 15.6863 49 19V41C49 44.3137 46.3137 47 43 47H21C17.6863 47 15 44.3137 15 41V19Z" fill="#EAF2FF"/>
      <path d="M21 11H43C48.5228 11 53 15.4772 53 21V43C53 48.5228 48.5228 53 43 53H21C15.4772 53 11 48.5228 11 43V21C11 15.4772 15.4772 11 21 11Z" fill="#1677FF"/>
      <path d="M21 22C21 19.2386 23.2386 17 26 17H43C45.7614 17 48 19.2386 48 22V39C48 41.7614 45.7614 44 43 44H26C23.2386 44 21 41.7614 21 39V22Z" fill="#FFFFFF" fill-opacity="0.9"/>
      <path d="M16 42C22.3 34.8 29.5 31.6 37.5 32.4C42.1 32.9 46.1 34.9 49.5 38.4C47.8 45.3 41.6 50.5 34.2 50.5H23C19.1 50.5 16 47.4 16 43.5V42Z" fill="#1677FF"/>
      <path d="M27 17H43C45.7614 17 48 19.2386 48 22V44L27 17Z" fill="#1D2329" fill-opacity="0.12"/>
    </g>
    <g transform="translate(55 94) scale(0.5)">
      <path d="M15 19C15 15.6863 17.6863 13 21 13H43C46.3137 13 49 15.6863 49 19V41C49 44.3137 46.3137 47 43 47H21C17.6863 47 15 44.3137 15 41V19Z" fill="#EAF2FF"/>
      <path d="M21 11H43C48.5228 11 53 15.4772 53 21V43C53 48.5228 48.5228 53 43 53H21C15.4772 53 11 48.5228 11 43V21C11 15.4772 15.4772 11 21 11Z" fill="#1677FF"/>
      <path d="M21 22C21 19.2386 23.2386 17 26 17H43C45.7614 17 48 19.2386 48 22V39C48 41.7614 45.7614 44 43 44H26C23.2386 44 21 41.7614 21 39V22Z" fill="#FFFFFF" fill-opacity="0.9"/>
      <path d="M16 42C22.3 34.8 29.5 31.6 37.5 32.4C42.1 32.9 46.1 34.9 49.5 38.4C47.8 45.3 41.6 50.5 34.2 50.5H23C19.1 50.5 16 47.4 16 43.5V42Z" fill="#1677FF"/>
      <path d="M27 17H43C45.7614 17 48 19.2386 48 22V44L27 17Z" fill="#1D2329" fill-opacity="0.12"/>
    </g>
    <text x="62" y="138" fill="#8C96A5" font-family="Inter, Arial, sans-serif" font-size="11">D4</text>
  </g>
</svg>
