<svg width="720" height="300" viewBox="0 0 720 300" fill="none" xmlns="http://www.w3.org/2000/svg">
  <rect width="720" height="300" rx="16" fill="#F5F7FA"/>
  <rect x="32" y="28" width="656" height="46" rx="8" fill="#FFFFFF" stroke="#EEF2F7"/>
  <rect x="50" y="39" width="26" height="26" rx="8" fill="#1677FF"/>
  <path d="M56 58C59.4 54.5 62.8 52.9 66.2 53.2C68.6 53.4 70.3 54.6 72 56.4V61C72 63.2 70.2 65 68 65H55C53.3 65 52 63.7 52 62V60.2C53.1 59.2 54.4 58.4 56 58Z" fill="#EAF2FF"/>
  <text x="88" y="57" fill="#1D2329" font-family="Inter, Arial, sans-serif" font-size="15" font-weight="600">skyspf</text>
  <text x="567" y="57" fill="#8C96A5" font-family="Inter, Arial, sans-serif" font-size="13">abstract app mark</text>

  <g transform="translate(54 112)">
    <rect width="140" height="140" rx="12" fill="#FFFFFF" stroke="#E6EBF1"/>
    <g transform="translate(38 22)">
      <rect x="8" y="8" width="48" height="48" rx="16" fill="#1677FF"/>
      <path d="M22 18H42C44.2091 18 46 19.7909 46 22V42C46 44.2091 44.2091 46 42 46H22C19.7909 46 18 44.2091 18 42V22C18 19.7909 19.7909 18 22 18Z" fill="#EAF2FF"/>
      <path d="M19 37C24.7 31.1 30.5 28.3 36.3 28.7C40.5 29 43.5 31.1 46 34.2V42C46 44.2091 44.2091 46 42 46H22C19.7909 46 18 44.2091 18 42V38.1C18.3 37.8 18.6 37.5 19 37Z" fill="#1677FF"/>
      <path d="M20 26.5C25.2 21.4 30.4 19.1 35.5 19.8C39.9 20.4 43 23.4 46 27.2V22C46 19.7909 44.2091 18 42 18H22C19.7909 18 18 19.7909 18 22V28.8C18.6 28 19.2 27.2 20 26.5Z" fill="#1D2329" fill-opacity="0.16"/>
      <circle cx="42" cy="22" r="3" fill="#00C18D"/>
    </g>
    <g transform="translate(54 100) scale(0.5)">
      <rect x="8" y="8" width="48" height="48" rx="16" fill="#1677FF"/>
      <path d="M22 18H42C44.2091 18 46 19.7909 46 22V42C46 44.2091 44.2091 46 42 46H22C19.7909 46 18 44.2091 18 42V22C18 19.7909 19.7909 18 22 18Z" fill="#EAF2FF"/>
      <path d="M19 37C24.7 31.1 30.5 28.3 36.3 28.7C40.5 29 43.5 31.1 46 34.2V42C46 44.2091 44.2091 46 42 46H22C19.7909 46 18 44.2091 18 42V38.1C18.3 37.8 18.6 37.5 19 37Z" fill="#1677FF"/>
      <path d="M20 26.5C25.2 21.4 30.4 19.1 35.5 19.8C39.9 20.4 43 23.4 46 27.2V22C46 19.7909 44.2091 18 42 18H22C19.7909 18 18 19.7909 18 22V28.8C18.6 28 19.2 27.2 20 26.5Z" fill="#1D2329" fill-opacity="0.16"/>
      <circle cx="42" cy="22" r="3" fill="#00C18D"/>
    </g>
    <text x="58" y="130" fill="#8C96A5" font-family="Inter, Arial, sans-serif" font-size="11">C1</text>
  </g>

  <g transform="translate(290 112)">
    <rect width="140" height="140" rx="12" fill="#FFFFFF" stroke="#E6EBF1"/>
    <g transform="translate(38 22)">
      <rect x="8" y="8" width="48" height="48" rx="16" fill="#1677FF"/>
      <rect x="18" y="18" width="28" height="28" rx="9" fill="#EAF2FF"/>
      <rect x="24" y="12" width="28" height="28" rx="9" fill="#1D2329" fill-opacity="0.18"/>
      <rect x="24" y="24" width="28" height="28" rx="9" fill="#80B3FF"/>
      <path d="M25 39C29.6 34.2 34.4 32.2 39.2 33C43.1 33.7 46.3 36.4 50 40.8V44C50 47.3137 47.3137 50 44 50H30C26.6863 50 24 47.3137 24 44V40.2C24.3 39.8 24.6 39.4 25 39Z" fill="#1677FF"/>
      <circle cx="23" cy="23" r="3" fill="#00C18D"/>
    </g>
    <g transform="translate(54 100) scale(0.5)">
      <rect x="8" y="8" width="48" height="48" rx="16" fill="#1677FF"/>
      <rect x="18" y="18" width="28" height="28" rx="9" fill="#EAF2FF"/>
      <rect x="24" y="12" width="28" height="28" rx="9" fill="#1D2329" fill-opacity="0.18"/>
      <rect x="24" y="24" width="28" height="28" rx="9" fill="#80B3FF"/>
      <path d="M25 39C29.6 34.2 34.4 32.2 39.2 33C43.1 33.7 46.3 36.4 50 40.8V44C50 47.3137 47.3137 50 44 50H30C26.6863 50 24 47.3137 24 44V40.2C24.3 39.8 24.6 39.4 25 39Z" fill="#1677FF"/>
      <circle cx="23" cy="23" r="3" fill="#00C18D"/>
    </g>
    <text x="58" y="130" fill="#8C96A5" font-family="Inter, Arial, sans-serif" font-size="11">C2</text>
  </g>

  <g transform="translate(526 112)">
    <rect width="140" height="140" rx="12" fill="#FFFFFF" stroke="#E6EBF1"/>
    <g transform="translate(38 22)">
      <rect x="8" y="8" width="48" height="48" rx="16" fill="#F7FAFF"/>
      <rect x="8" y="8" width="48" height="48" rx="16" stroke="#DCEBFF" stroke-width="2"/>
      <path d="M21 32C21 24.8203 26.8203 19 34 19H44C45.6569 19 47 20.3431 47 22V32C47 39.1797 41.1797 45 34 45H24C22.3431 45 21 43.6569 21 42V32Z" fill="#1677FF"/>
      <path d="M17 32C17 24.8203 22.8203 19 30 19H34V45H20C18.3431 45 17 43.6569 17 42V32Z" fill="#1D2329" fill-opacity="0.18"/>
      <path d="M25 33C28.7 29.2 32.5 27.6 36.3 28.2C39.8 28.8 42.4 31.3 45 34.8V38C45 40.7614 42.7614 43 40 43H26C23.2386 43 21 40.7614 21 38V36.9C22.1 35.5 23.4 34.2 25 33Z" fill="#EAF2FF"/>
      <circle cx="43" cy="22" r="3" fill="#00C18D"/>
    </g>
    <g transform="translate(54 100) scale(0.5)">
      <rect x="8" y="8" width="48" height="48" rx="16" fill="#F7FAFF"/>
      <rect x="8" y="8" width="48" height="48" rx="16" stroke="#DCEBFF" stroke-width="2"/>
      <path d="M21 32C21 24.8203 26.8203 19 34 19H44C45.6569 19 47 20.3431 47 22V32C47 39.1797 41.1797 45 34 45H24C22.3431 45 21 43.6569 21 42V32Z" fill="#1677FF"/>
      <path d="M17 32C17 24.8203 22.8203 19 30 19H34V45H20C18.3431 45 17 43.6569 17 42V32Z" fill="#1D2329" fill-opacity="0.18"/>
      <path d="M25 33C28.7 29.2 32.5 27.6 36.3 28.2C39.8 28.8 42.4 31.3 45 34.8V38C45 40.7614 42.7614 43 40 43H26C23.2386 43 21 40.7614 21 38V36.9C22.1 35.5 23.4 34.2 25 33Z" fill="#EAF2FF"/>
      <circle cx="43" cy="22" r="3" fill="#00C18D"/>
    </g>
    <text x="58" y="130" fill="#8C96A5" font-family="Inter, Arial, sans-serif" font-size="11">C3</text>
  </g>
</svg>
