<svg width="64" height="64" viewBox="0 0 64 64" fill="none" xmlns="http://www.w3.org/2000/svg">
  <path d="M18 14H35C41.6274 14 47 19.3726 47 26V43C47 46.866 43.866 50 40 50H23C16.3726 50 11 44.6274 11 38V21C11 17.134 14.134 14 18 14Z" fill="#1677FF"/>
  <path d="M29 14H46C49.866 14 53 17.134 53 21V38C53 44.6274 47.6274 50 41 50H24C20.134 50 17 46.866 17 43V26C17 19.3726 22.3726 14 29 14Z" fill="#80B3FF"/>
  <path d="M18 34C24.8 27.5 32.4 25 40.8 26.5C45.4 27.3 49.5 29.5 53 33V38C53 44.6274 47.6274 50 41 50H24C20.134 50 17 46.866 17 43V35.1C17.3 34.7 17.6 34.4 18 34Z" fill="#1D2329" fill-opacity="0.22"/>
  <path d="M18 42C24.2 35.7 31.1 33 38.8 33.9C43.5 34.5 47.7 36.8 51.2 40.8C49.7 46.1 44.8 50 39 50H24C20.7 50 18 47.3 18 44V42Z" fill="#EAF2FF"/>
</svg>
