<svg width="64" height="64" viewBox="0 0 64 64" fill="none" xmlns="http://www.w3.org/2000/svg">
  <rect x="8" y="8" width="48" height="48" rx="16" fill="#1677FF"/>
  <path d="M22 18H42C44.2091 18 46 19.7909 46 22V42C46 44.2091 44.2091 46 42 46H22C19.7909 46 18 44.2091 18 42V22C18 19.7909 19.7909 18 22 18Z" fill="#EAF2FF"/>
  <path d="M19 37C24.7 31.1 30.5 28.3 36.3 28.7C40.5 29 43.5 31.1 46 34.2V42C46 44.2091 44.2091 46 42 46H22C19.7909 46 18 44.2091 18 42V38.1C18.3 37.8 18.6 37.5 19 37Z" fill="#1677FF"/>
  <path d="M20 26.5C25.2 21.4 30.4 19.1 35.5 19.8C39.9 20.4 43 23.4 46 27.2V22C46 19.7909 44.2091 18 42 18H22C19.7909 18 18 19.7909 18 22V28.8C18.6 28 19.2 27.2 20 26.5Z" fill="#1D2329" fill-opacity="0.16"/>
  <circle cx="42" cy="22" r="3" fill="#00C18D"/>
</svg>
