<svg width="64" height="64" viewBox="0 0 64 64" fill="none" xmlns="http://www.w3.org/2000/svg">
  <rect x="8" y="8" width="48" height="48" rx="14" fill="#1677FF"/>
  <path d="M17 23C17 20.2386 19.2386 18 22 18H46C48.7614 18 51 20.2386 51 23V46C51 48.7614 48.7614 51 46 51H22C19.2386 51 17 48.7614 17 46V23Z" fill="#EAF2FF"/>
  <path d="M22 24H46" stroke="#1677FF" stroke-width="4" stroke-linecap="round"/>
  <path d="M22 33H46" stroke="#1677FF" stroke-width="4" stroke-linecap="round" stroke-opacity="0.72"/>
  <path d="M22 42H46" stroke="#1677FF" stroke-width="4" stroke-linecap="round" stroke-opacity="0.44"/>
  <path d="M21 48L34 18H46L32 51H24C22.3431 51 21 49.6569 21 48Z" fill="#1D2329" fill-opacity="0.14"/>
  <path d="M22 24H46" stroke="#FFFFFF" stroke-width="1.5" stroke-linecap="round" stroke-opacity="0.5"/>
</svg>
