<svg width="64" height="64" viewBox="0 0 64 64" fill="none" xmlns="http://www.w3.org/2000/svg">
  <path d="M15 19C15 15.6863 17.6863 13 21 13H43C46.3137 13 49 15.6863 49 19V41C49 44.3137 46.3137 47 43 47H21C17.6863 47 15 44.3137 15 41V19Z" fill="#EAF2FF"/>
  <path d="M21 11H43C48.5228 11 53 15.4772 53 21V43C53 48.5228 48.5228 53 43 53H21C15.4772 53 11 48.5228 11 43V21C11 15.4772 15.4772 11 21 11Z" fill="#1677FF"/>
  <path d="M21 22C21 19.2386 23.2386 17 26 17H43C45.7614 17 48 19.2386 48 22V39C48 41.7614 45.7614 44 43 44H26C23.2386 44 21 41.7614 21 39V22Z" fill="#FFFFFF" fill-opacity="0.9"/>
  <path d="M16 42C22.3 34.8 29.5 31.6 37.5 32.4C42.1 32.9 46.1 34.9 49.5 38.4C47.8 45.3 41.6 50.5 34.2 50.5H23C19.1 50.5 16 47.4 16 43.5V42Z" fill="#1677FF"/>
  <path d="M27 17H43C45.7614 17 48 19.2386 48 22V44L27 17Z" fill="#1D2329" fill-opacity="0.12"/>
</svg>
