<svg width="64" height="64" viewBox="0 0 64 64" fill="none" xmlns="http://www.w3.org/2000/svg">
  <path d="M32 9C40.2843 9 47 15.7157 47 24V40C47 48.2843 40.2843 55 32 55C23.7157 55 17 48.2843 17 40V24C17 15.7157 23.7157 9 32 9Z" fill="#1677FF"/>
  <path d="M32 9C40.2843 9 47 15.7157 47 24V31C42.5 28.2 37.5 26.9 32 27C26.5 27.1 21.5 28.6 17 31.5V24C17 15.7157 23.7157 9 32 9Z" fill="#EAF2FF"/>
  <path d="M18 41C22.4 35.3 27.7 32.5 34 32.5C39.4 32.5 43.8 34.7 47 39.2V40C47 48.2843 40.2843 55 32 55C25.7 55 20.3 51.1 18 45.6V41Z" fill="#1D2329" fill-opacity="0.2"/>
  <path d="M20 44C24 39.4 28.7 37.3 34 37.7C38.6 38 42.5 40.2 45.8 44.2C44 50.4 38.5 55 32 55C26.9 55 22.4 52.2 20 48V44Z" fill="#1677FF"/>
</svg>
