<svg width="720" height="300" viewBox="0 0 720 300" fill="none" xmlns="http://www.w3.org/2000/svg">
  <rect width="720" height="300" rx="16" fill="#F5F7FA"/>
  <rect x="32" y="28" width="656" height="46" rx="8" fill="#FFFFFF" stroke="#EEF2F7"/>
  <rect x="48" y="38" width="28" height="28" rx="7" fill="#1677FF"/>
  <path d="M54 44H70V48H54V44Z" fill="#EAF2FF"/>
  <path d="M54 53H70V57H54V53Z" fill="#EAF2FF" fill-opacity="0.72"/>
  <path d="M54 62H65V66H54V62Z" fill="#EAF2FF" fill-opacity="0.5"/>
  <path d="M55 66L75 43" stroke="#FFFFFF" stroke-width="3" stroke-linecap="round"/>
  <text x="88" y="57" fill="#1D2329" font-family="Inter, Arial, sans-serif" font-size="15" font-weight="600">skyspf</text>
  <text x="610" y="57" fill="#8C96A5" font-family="Inter, Arial, sans-serif" font-size="13">sidebar 32px</text>

  <g transform="translate(54 112)">
    <rect width="140" height="140" rx="12" fill="#FFFFFF" stroke="#E6EBF1"/>
    <g transform="translate(38 22)">
      <svg width="64" height="64" viewBox="0 0 64 64" fill="none" xmlns="http://www.w3.org/2000/svg">
        <rect x="8" y="8" width="48" height="48" rx="14" fill="#1677FF"/>
        <path d="M21 18H47C49.2091 18 51 19.7909 51 22V43C51 45.2091 49.2091 47 47 47H21C18.7909 47 17 45.2091 17 43V22C17 19.7909 18.7909 18 21 18Z" fill="#EAF2FF"/>
        <path d="M22 22H46V29H22V22Z" fill="#1677FF" fill-opacity="0.22"/>
        <path d="M22 33H46V40H22V33Z" fill="#1677FF" fill-opacity="0.22"/>
        <path d="M28 18H47C49.2091 18 51 19.7909 51 22V47L28 18Z" fill="#1D2329" fill-opacity="0.16"/>
        <path d="M20 45L48 20" stroke="#FFFFFF" stroke-width="5" stroke-linecap="round" stroke-opacity="0.92"/>
      </svg>
    </g>
    <g transform="translate(54 100) scale(0.5)">
      <svg width="64" height="64" viewBox="0 0 64 64" fill="none" xmlns="http://www.w3.org/2000/svg">
        <rect x="8" y="8" width="48" height="48" rx="14" fill="#1677FF"/>
        <path d="M21 18H47C49.2091 18 51 19.7909 51 22V43C51 45.2091 49.2091 47 47 47H21C18.7909 47 17 45.2091 17 43V22C17 19.7909 18.7909 18 21 18Z" fill="#EAF2FF"/>
        <path d="M22 22H46V29H22V22Z" fill="#1677FF" fill-opacity="0.22"/>
        <path d="M22 33H46V40H22V33Z" fill="#1677FF" fill-opacity="0.22"/>
        <path d="M28 18H47C49.2091 18 51 19.7909 51 22V47L28 18Z" fill="#1D2329" fill-opacity="0.16"/>
        <path d="M20 45L48 20" stroke="#FFFFFF" stroke-width="5" stroke-linecap="round" stroke-opacity="0.92"/>
      </svg>
    </g>
    <text x="57" y="130" fill="#8C96A5" font-family="Inter, Arial, sans-serif" font-size="11">A1</text>
  </g>

  <g transform="translate(290 112)">
    <rect width="140" height="140" rx="12" fill="#FFFFFF" stroke="#E6EBF1"/>
    <g transform="translate(38 22)">
      <svg width="64" height="64" viewBox="0 0 64 64" fill="none" xmlns="http://www.w3.org/2000/svg">
        <rect x="8" y="8" width="48" height="48" rx="14" fill="#1677FF"/>
        <path d="M17 23C17 20.2386 19.2386 18 22 18H46C48.7614 18 51 20.2386 51 23V46C51 48.7614 48.7614 51 46 51H22C19.2386 51 17 48.7614 17 46V23Z" fill="#EAF2FF"/>
        <path d="M22 24H46" stroke="#1677FF" stroke-width="4" stroke-linecap="round"/>
        <path d="M22 33H46" stroke="#1677FF" stroke-width="4" stroke-linecap="round" stroke-opacity="0.72"/>
        <path d="M22 42H46" stroke="#1677FF" stroke-width="4" stroke-linecap="round" stroke-opacity="0.44"/>
        <path d="M21 48L34 18H46L32 51H24C22.3431 51 21 49.6569 21 48Z" fill="#1D2329" fill-opacity="0.14"/>
        <path d="M22 24H46" stroke="#FFFFFF" stroke-width="1.5" stroke-linecap="round" stroke-opacity="0.5"/>
      </svg>
    </g>
    <g transform="translate(54 100) scale(0.5)">
      <svg width="64" height="64" viewBox="0 0 64 64" fill="none" xmlns="http://www.w3.org/2000/svg">
        <rect x="8" y="8" width="48" height="48" rx="14" fill="#1677FF"/>
        <path d="M17 23C17 20.2386 19.2386 18 22 18H46C48.7614 18 51 20.2386 51 23V46C51 48.7614 48.7614 51 46 51H22C19.2386 51 17 48.7614 17 46V23Z" fill="#EAF2FF"/>
        <path d="M22 24H46" stroke="#1677FF" stroke-width="4" stroke-linecap="round"/>
        <path d="M22 33H46" stroke="#1677FF" stroke-width="4" stroke-linecap="round" stroke-opacity="0.72"/>
        <path d="M22 42H46" stroke="#1677FF" stroke-width="4" stroke-linecap="round" stroke-opacity="0.44"/>
        <path d="M21 48L34 18H46L32 51H24C22.3431 51 21 49.6569 21 48Z" fill="#1D2329" fill-opacity="0.14"/>
        <path d="M22 24H46" stroke="#FFFFFF" stroke-width="1.5" stroke-linecap="round" stroke-opacity="0.5"/>
      </svg>
    </g>
    <text x="57" y="130" fill="#8C96A5" font-family="Inter, Arial, sans-serif" font-size="11">A2</text>
  </g>

  <g transform="translate(526 112)">
    <rect width="140" height="140" rx="12" fill="#FFFFFF" stroke="#E6EBF1"/>
    <g transform="translate(38 22)">
      <svg width="64" height="64" viewBox="0 0 64 64" fill="none" xmlns="http://www.w3.org/2000/svg">
        <rect x="9" y="9" width="46" height="46" rx="13" fill="#F7FAFF"/>
        <rect x="9" y="9" width="46" height="46" rx="13" stroke="#DCEBFF" stroke-width="2"/>
        <path d="M19 20C19 18.3431 20.3431 17 22 17H45C46.6569 17 48 18.3431 48 20V43C48 44.6569 46.6569 46 45 46H22C20.3431 46 19 44.6569 19 43V20Z" fill="#1677FF"/>
        <path d="M26 17H45C46.6569 17 48 18.3431 48 20V46L26 17Z" fill="#1D2329" fill-opacity="0.2"/>
        <path d="M23 22H44" stroke="#EAF2FF" stroke-width="3.5" stroke-linecap="round"/>
        <path d="M23 31H44" stroke="#EAF2FF" stroke-width="3.5" stroke-linecap="round" stroke-opacity="0.72"/>
        <path d="M23 40H38" stroke="#EAF2FF" stroke-width="3.5" stroke-linecap="round" stroke-opacity="0.5"/>
        <path d="M18 48L49 17" stroke="#00C18D" stroke-width="4" stroke-linecap="round"/>
      </svg>
    </g>
    <g transform="translate(54 100) scale(0.5)">
      <svg width="64" height="64" viewBox="0 0 64 64" fill="none" xmlns="http://www.w3.org/2000/svg">
        <rect x="9" y="9" width="46" height="46" rx="13" fill="#F7FAFF"/>
        <rect x="9" y="9" width="46" height="46" rx="13" stroke="#DCEBFF" stroke-width="2"/>
        <path d="M19 20C19 18.3431 20.3431 17 22 17H45C46.6569 17 48 18.3431 48 20V43C48 44.6569 46.6569 46 45 46H22C20.3431 46 19 44.6569 19 43V20Z" fill="#1677FF"/>
        <path d="M26 17H45C46.6569 17 48 18.3431 48 20V46L26 17Z" fill="#1D2329" fill-opacity="0.2"/>
        <path d="M23 22H44" stroke="#EAF2FF" stroke-width="3.5" stroke-linecap="round"/>
        <path d="M23 31H44" stroke="#EAF2FF" stroke-width="3.5" stroke-linecap="round" stroke-opacity="0.72"/>
        <path d="M23 40H38" stroke="#EAF2FF" stroke-width="3.5" stroke-linecap="round" stroke-opacity="0.5"/>
        <path d="M18 48L49 17" stroke="#00C18D" stroke-width="4" stroke-linecap="round"/>
      </svg>
    </g>
    <text x="57" y="130" fill="#8C96A5" font-family="Inter, Arial, sans-serif" font-size="11">B1</text>
  </g>
</svg>
